<?xml version="1.0" encoding="UTF-8" standalone="no"?>
<svg
   width="256"
   height="256"
   viewBox="0 0 2048 2048"
   version="1.1"
   id="svg5"
   sodipodi:docname="neobot_toaster_mid.svg"
   xml:space="preserve"
   inkscape:version="1.3.2 (091e20e, 2023-11-25, custom)"
   inkscape:export-filename="..\png\neobot_toaster_mid.png"
   inkscape:export-xdpi="768"
   inkscape:export-ydpi="768"
   xmlns:inkscape="http://www.inkscape.org/namespaces/inkscape"
   xmlns:sodipodi="http://sodipodi.sourceforge.net/DTD/sodipodi-0.dtd"
   xmlns:xlink="http://www.w3.org/1999/xlink"
   xmlns="http://www.w3.org/2000/svg"
   xmlns:svg="http://www.w3.org/2000/svg"
   xmlns:serif="http://www.serif.com/"><sodipodi:namedview
     id="namedview5"
     pagecolor="#ffffff"
     bordercolor="#666666"
     borderopacity="1.0"
     inkscape:showpageshadow="2"
     inkscape:pageopacity="0.0"
     inkscape:pagecheckerboard="0"
     inkscape:deskcolor="#d1d1d1"
     inkscape:zoom="2.8945312"
     inkscape:cx="101.74359"
     inkscape:cy="210.5695"
     inkscape:window-width="1920"
     inkscape:window-height="1001"
     inkscape:window-x="-9"
     inkscape:window-y="-9"
     inkscape:window-maximized="1"
     inkscape:current-layer="svg5" /><defs
     id="defs5"><filter
       id="eye_glow"
       width="2.640625"
       height="2.125"
       x="-0.8203125"
       y="-0.5625"><feGaussianBlur
         in="SourceGraphic"
         result="blur1"
         stdDeviation="50"
         id="feGaussianBlur1" /><feGaussianBlur
         in="SourceGraphic"
         result="blur2"
         stdDeviation="25"
         id="feGaussianBlur2" /><feGaussianBlur
         in="SourceGraphic"
         result="blur3"
         stdDeviation="12.5 "
         id="feGaussianBlur3" /><feComposite
         in="SourceGraphic"
         in2="blur1"
         result="comp1"
         id="feComposite3" /><feComposite
         in="comp1"
         in2="blur2"
         result="comp2"
         id="feComposite4" /><feComposite
         in="comp2"
         in2="blur3"
         id="feComposite5" /></filter><radialGradient
       inkscape:collect="always"
       xlink:href="#linearGradient5"
       id="radialGradient6"
       cx="100.22363"
       cy="128.19238"
       fx="100.22363"
       fy="128.19238"
       r="64.608398"
       gradientTransform="matrix(1.7325771,0,0,1.2916912,-73.421541,-37.39259)"
       gradientUnits="userSpaceOnUse" /><linearGradient
       id="linearGradient5"
       inkscape:collect="always"><stop
         style="stop-color:#db8524;stop-opacity:1;"
         offset="0"
         id="stop5" /><stop
         style="stop-color:#db8524;stop-opacity:0.80000001;"
         offset="0.80000001"
         id="stop7" /><stop
         style="stop-color:#db8524;stop-opacity:0;"
         offset="1"
         id="stop6" /></linearGradient><filter
       inkscape:collect="always"
       style="color-interpolation-filters:sRGB"
       id="filter7"
       x="-0.05739182"
       y="-0.042580294"
       width="1.1147836"
       height="1.0851606"><feGaussianBlur
         inkscape:collect="always"
         stdDeviation="2.96125"
         id="feGaussianBlur7" /></filter><inkscape:path-effect
       effect="lattice2"
       gridpoint0="35.615234,44.738281"
       gridpoint1="164.83203,44.738281"
       gridpoint2="35.615234,211.64648"
       gridpoint3="164.83203,211.64648"
       gridpoint4="67.919433,44.738281"
       gridpoint5="132.52783,44.738281"
       gridpoint6="67.919433,211.64648"
       gridpoint7="132.52783,211.64648"
       gridpoint8x9="100.22363,44.738281"
       gridpoint10x11="100.22363,211.64648"
       gridpoint12="35.615234,86.465331"
       gridpoint13="164.83203,86.465331"
       gridpoint14="35.615234,169.91943"
       gridpoint15="164.83203,169.91943"
       gridpoint16="67.919433,86.465331"
       gridpoint17="132.52783,86.465331"
       gridpoint18="67.919433,169.91943"
       gridpoint19="132.52783,169.91943"
       gridpoint20x21="100.22363,86.465331"
       gridpoint22x23="100.22363,169.91943"
       gridpoint24x26="41.626123,128.19238"
       gridpoint25x27="158.82114,128.19238"
       gridpoint28x30="67.919433,128.19238"
       gridpoint29x31="132.52783,128.19238"
       gridpoint32x33x34x35="100.22363,128.19238"
       id="path-effect7"
       is_visible="true"
       lpeversion="1"
       horizontal_mirror="false"
       vertical_mirror="true"
       perimetral="true"
       live_update="true" /><clipPath
       clipPathUnits="userSpaceOnUse"
       id="clipPath10"><path
         id="path11"
         style="opacity:1;stroke-width:32;stroke-linecap:round;stroke-linejoin:round"
         d="m 645.65625,1127.0469 c -24.09097,0 -116.06331,136.4554 -117.625,149.6093 0,20.8419 16.78312,37.625 37.625,37.625 h 742.64065 c 43.8743,-12.4638 91.0332,-111.5458 117.6251,-149.625 0,-20.8418 -16.7831,-37.6093 -37.6251,-37.6093 z"
         sodipodi:nodetypes="sssscss"
         inkscape:label="opening" /></clipPath><clipPath
       clipPathUnits="userSpaceOnUse"
       id="clipPath14"><path
         id="path14"
         style="opacity:1;stroke-width:7.99263;stroke-linecap:round;stroke-linejoin:round"
         inkscape:label="opening"
         d="M -9.7934035,-92.442722 V 133.49738 c -6.99e-5,0.016 0.0038,0.0312 0.004,0.0468 -0.1980374,0.44272 -0.3185755,0.7819 -0.3434335,0.99125 0,5.20568 4.1919208,9.39759 9.39758468,9.39759 H 184.75387 c 10.95841,-3.11305 22.73733,-27.86077 29.37917,-37.3718 0,-1.71661 -0.49015,-3.30155 -1.28789,-4.68318 0.7515,-1.25328 1.18778,-2.694212 1.08494,-4.347528 V -92.442722 Z" /></clipPath></defs><path
     id="rect7"
     style="stroke-width:0.698257"
     d="m 1579.2129,1430.6343 c -59.5826,0.018 -115.0805,3.9932 -136.7695,19.286 -10.1912,8.2133 -17.9719,19.2357 -22.8724,31.335 -4.7512,11.7162 -6.9052,24.3871 -7.0693,36.9982 -0.023,5.3939 0.01,10.7828 0,16.1769 0.013,20.9362 -0.019,41.876 0.039,62.8119 0.2787,14.021 3.2295,28.0757 9.3399,40.7392 5.2142,10.7923 12.8986,20.4228 22.4853,27.6455 50.2298,19.8012 113.6643,20.1914 176.3219,17.622 62.6617,2.5699 126.0888,2.1806 176.322,-17.622 9.5866,-7.2227 17.2711,-16.8532 22.4853,-27.6455 6.1104,-12.6635 9.0612,-26.7182 9.3399,-40.7392 0.058,-20.9359 0.026,-41.8757 0.039,-62.8119 -0.01,-5.3941 0.023,-10.783 0,-16.1769 -0.1642,-12.6111 -2.3182,-25.282 -7.0694,-36.9982 -4.9004,-12.0993 -12.6811,-23.1217 -22.8724,-31.335 -26.6886,-18.8179 -104.5556,-20.4745 -178.2441,-18.7313 -13.8043,-0.3266 -27.7398,-0.559 -41.4746,-0.5547 z"
     inkscape:label="handle_outline" /><path
     id="path8"
     style="font-variation-settings:'wght' 400;display:inline;opacity:1;fill:#000000;stroke-width:0.709743"
     d="m 1037.5162,884.13756 c -4.1425,0.027 -8.2848,0.0506 -12.4272,0.0908 -0.3317,9.9e-4 -1.2134,0.0148 -1.756,0.0209 -0.911,0.0115 -1.822,0.023 -2.7331,0.0343 -0.2146,0.008 -1.2114,0.0225 -1.7282,0.0331 -18.8342,0.28895 -37.64596,1.61061 -56.36158,3.71699 -45.07635,5.1008 -89.53156,15.15458 -132.69553,29.04588 -0.10988,0.0374 -0.98283,0.32198 -1.46839,0.48042 -40.10475,13.0271 -79.14844,29.27399 -116.79927,48.24895 -25.72052,13.12006 -50.57608,27.93105 -74.38019,44.2714 -0.18632,0.1358 -0.9969,0.6894 -1.42414,0.9864 -46.27145,31.9425 -88.50063,69.7383 -125.30961,112.2434 -37.92199,43.7581 -70.15169,92.45 -95.54358,144.492 -4.44742,9.1256 -8.12906,18.5961 -11.8773,28.0228 -17.70214,45.3894 -30.36244,93.2783 -37.38612,141.164 -0.18078,1.244 -0.4284,2.9722 -0.56598,3.9029 -0.35766,2.5375 -0.76945,5.5789 -1.05494,7.8058 -4.74433,36.7442 -6.31516,73.8917 -4.7665,110.907 0.14854,4.6819 0.20906,9.3662 0.30779,14.0493 0.0108,0.2393 0.0305,1.2118 0.0446,1.7339 0.0232,0.978 0.0608,2.4244 0.0749,3.1011 0.35757,12.8354 0.99149,25.6635 1.96316,38.4674 0.003,0.073 0.0917,1.1552 0.12645,1.6022 3.29672,42.0311 10.24455,83.9129 22.77018,124.2229 9.94342,31.9579 23.43814,62.8804 40.95019,91.4329 7.19832,11.72 15.11165,22.9832 23.22697,34.0817 4.98485,6.7694 10.14957,13.4071 15.52316,19.8727 0.1198,0.1484 0.77715,0.9284 1.10513,1.3215 34.79994,41.5824 77.39258,76.6369 124.97169,102.6567 37.51486,20.5506 78.05077,35.6262 119.93792,44.3353 4.3785,0.8849 8.77068,1.7015 13.17526,2.4459 4e-4,0 1.13671,0.1872 1.56723,0.2588 12.80232,2.1082 25.70034,3.6063 38.62978,4.6707 0.21301,0.02 1.20774,0.095 1.72285,0.138 17.98683,1.4298 36.03093,1.9865 54.06972,2.1835 0.4001,4e-4 1.21354,0.012 1.77188,0.016 23.05501,0.2172 46.11321,-0.02 69.16642,0.4012 23.80261,0.2453 47.60683,0.2551 71.4102,0.3863 102.67165,0.4509 205.34835,0.6829 308.01715,-0.3971 1.4298,-0.012 3.0995,-0.034 4.6215,-0.052 16.2428,-0.2047 32.4877,-0.3221 48.728,-0.6786 10.5766,-0.529 21.0831,-1.9898 31.5251,-3.7047 7.0937,-1.2022 14.147,-2.6404 21.1494,-4.2932 0.01,-0.01 1.1209,-0.2704 1.5462,-0.3744 0.6473,-0.1544 0.8938,-0.2145 1.6396,-0.3997 3.3569,-0.8295 6.7015,-1.7091 10.0309,-2.643 0.1834,-0.049 1.1649,-0.3301 1.6575,-0.4691 10.414,-2.9713 20.6831,-6.4484 30.7635,-10.4063 0.039,-0.012 1.0744,-0.4266 1.4863,-0.5893 23.2941,-9.2932 45.5844,-21.1537 66.1703,-35.4886 29.5288,-20.7205 54.9292,-47.0915 75.4161,-76.732 26.3003,-37.962 44.7954,-80.9132 57.3192,-125.2489 1.7624,-6.2514 3.4046,-12.5363 4.9402,-18.8472 0.013,-0.076 0.2696,-1.1274 0.3726,-1.5644 2.8916,-11.9327 5.3035,-23.974 7.6029,-36.0328 0.021,-0.097 0.2114,-1.1416 0.2946,-1.5869 2.2522,-12.1687 4.0679,-24.418 5.4599,-36.7149 0.029,-0.2361 0.1336,-1.2048 0.192,-1.7234 0.076,-0.6804 0.1278,-1.1476 0.181,-1.6711 0.4532,-4.2036 0.8611,-8.4118 1.2299,-12.6235 0.02,-0.2787 0.1023,-1.2087 0.1463,-1.7378 0.1399,-1.596 0.2596,-3.1935 0.3867,-4.7906 0.026,-0.3134 0.091,-1.2099 0.1321,-1.7471 0.124,-1.601 0.2292,-3.2032 0.3418,-4.805 0.017,-0.3134 0.079,-1.2108 0.1127,-1.7483 0.036,-0.55 0.089,-1.3646 0.1086,-1.6535 0.8778,-14.2427 1.3606,-28.5075 1.5772,-42.7748 0.01,-0.2146 0.015,-1.2115 0.022,-1.7283 0.3467,-26.9005 -0.1771,-53.8014 -0.3462,-80.7012 -0.092,-11.8101 -0.059,-23.6206 0,-35.4306 -0.025,-16.5112 -0.6181,-33.0214 -1.7786,-49.492 0,-0.066 -0.085,-1.155 -0.1173,-1.601 -0.1854,-2.6019 -0.3998,-5.2017 -0.6111,-7.8016 -0.01,-0.066 -0.102,-1.1539 -0.1425,-1.5992 -0.091,-1.0318 -0.1814,-2.0635 -0.2721,-3.0952 0,-0.065 -0.1092,-1.1531 -0.1506,-1.5981 -1.8524,-19.7887 -4.5703,-39.4974 -8.1879,-59.0411 0,-0.035 -0.2146,-1.1353 -0.2959,-1.5698 -5.7881,-30.7102 -13.7808,-61.0248 -24.2478,-90.4771 -5.4981,-15.3328 -11.7653,-30.3834 -18.5057,-45.2093 -8.4453,-18.4745 -17.9648,-36.468 -28.7426,-53.691 -23.3605,-37.5136 -51.9433,-71.5203 -82.7518,-103.106 -11.4451,-11.7544 -23.211,-23.1929 -35.1573,-34.4362 -0.2509,-0.2287 -0.8859,-0.8294 -1.284,-1.2008 -23.3218,-21.9302 -47.4836,-43.0612 -73.4545,-61.82149 -19.3395,-13.96593 -39.9087,-26.30338 -61.682,-36.09151 -7.4195,-3.40857 -14.7851,-6.93177 -22.1404,-10.47623 -19.7262,-9.30221 -40.0795,-17.25973 -60.8408,-23.93347 -0.1775,-0.0518 -1.1537,-0.36668 -1.6407,-0.52042 -52.2963,-16.63222 -107.0488,-25.0377 -161.8569,-26.50016 -7.7334,-0.21328 -15.4707,-0.27301 -23.2066,-0.22622 z"
     inkscape:label="outline" /><path
     id="body"
     fill="#cbcbcb"
     stroke="none"
     d="m 1046,448 c -137,-1 -272,39 -394,99 a 828,828 0 0 0 -376,381 802,802 0 0 0 -65,358 c 1,122 20,251 93,352 a 501,501 0 0 0 301,206 c 80,18 163,12 244,14 201,1 401,2 602,-1 60,-5 120,-26 170,-60 93,-64 139,-176 159,-283 21,-100 13,-202 14,-304 1,-97 -13,-195 -47,-287 -29,-74 -64,-149 -185,-265 -120,-116 -163,-126 -197,-143 -98,-49 -209,-69 -319,-67 z"
     display="inline"
     paint-order="markers stroke fill"
     style="font-variation-settings:'wght' 400"
     transform="matrix(0.7021952,0,0,0.7021952,300.92957,653.15792)" /><g
     id="g7"
     inkscape:label="handle"
     transform="matrix(0.7021952,0,0,0.7021952,300.92957,411.54417)"><rect
       id="light"
       width="195.60999"
       height="163.06175"
       x="1532.0974"
       y="-2112.2439"
       fill="#58d3d7"
       paint-order="markers stroke fill"
       rx="29.747715"
       ry="31.335711"
       transform="rotate(90)"
       style="stroke-width:1.20441" /><rect
       id="stem"
       width="195.60999"
       height="283.38254"
       x="1533.3473"
       y="-1940.4779"
       fill="#a0a0a0"
       paint-order="markers stroke fill"
       rx="32.622498"
       ry="13.702599"
       transform="rotate(90)"
       style="stroke-width:0.816345" /><path
       style="fill:none;stroke:#22898c;stroke-width:45.5714;stroke-linecap:round;stroke-linejoin:miter;stroke-dasharray:none;stroke-opacity:1"
       d="m 1982.7786,1602.5432 c 0,0 72.2587,-1.0189 98.3509,-31.9798"
       id="path6"
       sodipodi:nodetypes="cc" /><path
       style="fill:none;stroke:#22898c;stroke-width:45.5714;stroke-linecap:round;stroke-linejoin:miter;stroke-dasharray:none;stroke-opacity:1"
       d="m 1982.7786,1661.7061 c 0,0 72.2587,1.0189 98.3509,31.9798"
       id="path7"
       sodipodi:nodetypes="cc" /></g><g
     id="g5"
     inkscape:label="neobot"
     transform="matrix(0.70219522,0,0,0.70219522,300.92957,653.15792)"><path
       id="visor"
       fill="#353535"
       d="m 639,1506.214 -45,-5 c -35,-5 -63,-13 -89,-26 -53,-27 -87,-71 -98,-130 -4,-19 -5,-28 -5,-47 0,-74 26,-142 77,-207 66,-83.0001 156,-87.4287 270,-104.4287 125.58649,-14.43634 252.4135,-14.43634 378,0 114,17 204,21.4286 270,104.4287 51,65 77,133 77,207 0,19 -1,28 -5,47 -17,86 -80,139 -183,156 -35,6 -13,5 -341,6 z"
       display="inline"
       sodipodi:nodetypes="ccccsccccscccc" /><path
       id="mouth"
       fill="none"
       stroke="#353535"
       stroke-linecap="round"
       stroke-linejoin="round"
       stroke-width="80.4"
       d="m 632,1614.214 97,156 127,-161 157,164 192,-161" /><g
       id="eyes"
       clip-path="url(#visor)"
       transform="translate(0,296.21393)"><path
         id="left_eye"
         fill="#58d3d7"
         d="m 1209,834 a 128,128 0 0 0 -128,128 v 64 a 128,128 0 0 0 128,128 128,128 0 0 0 128,-128 V 962 A 128,128 0 0 0 1209,834 Z"
         filter="url(#eye_glow)" /><use
         xlink:href="#left_eye"
         id="right_eye"
         width="100%"
         height="100%"
         x="0"
         y="0"
         display="inline"
         transform="translate(-575)" /></g></g><path
     id="path10"
     style="opacity:1;stroke-width:32;stroke-linecap:round;stroke-linejoin:round;fill:#802200;fill-opacity:1"
     d="m 645.65625,1127.0469 c -24.09097,0 -116.06331,136.4554 -117.625,149.6093 0,20.8419 16.78312,37.625 37.625,37.625 h 742.64065 c 43.8742,-12.4638 91.0332,-111.5458 117.625,-149.625 0,-20.8418 -16.7831,-37.6093 -37.625,-37.6093 z"
     sodipodi:nodetypes="sssscss"
     inkscape:label="opening" /><g
     id="neobread1"
     transform="matrix(4.0036884,0,0,4.0036884,568.60036,738.0181)"
     style="clip-rule:evenodd;display:inline;fill-rule:evenodd;stroke-linecap:round;stroke-linejoin:round;stroke-miterlimit:1.5"
     clip-path="url(#clipPath14)">
        <path
   id="Crust"
   d="m 140.734,26.885 c 30.212,0 54.739,24.528 54.739,54.739 0,12.843 -4.432,24.658 -11.85,33.999 v 84.841 c 0,15.813 -12.838,28.651 -28.651,28.651 H 48.771 c -15.813,0 -28.651,-12.838 -28.651,-28.651 V 115.297 C 12.857,106.008 8.527,94.318 8.527,81.624 8.527,51.413 33.054,26.885 63.266,26.885 Z"
   style="fill:#d1a084;stroke:#000000;stroke-width:15px"
   sodipodi:nodetypes="sscsssscsss" />
        <rect
   id="Shadow"
   x="160.3347"
   y="118.959"
   width="15.882221"
   height="15.248"
   style="fill:#ba856d;stroke-width:0.387704" />
        <path
   id="Slice"
   d="M 42.009,112.691 C 33.24,105.704 27.616,94.934 27.616,82.861 27.616,61.82 44.698,44.738 65.738,44.738 h 69.873 c 21.041,0 38.123,17.082 38.123,38.123 0,11.667 -5.253,22.118 -13.521,29.113 v 84.758 c 0,8.232 -6.683,14.915 -14.914,14.915 H 56.924 c -8.232,0 -14.915,-6.683 -14.915,-14.915 z"
   style="fill:#fce9ba" />
        <path
   id="rect3"
   style="clip-rule:evenodd;display:inline;opacity:0.85;mix-blend-mode:normal;fill:url(#radialGradient6);fill-opacity:1;fill-rule:evenodd;stroke:none;stroke-width:1.086;stroke-linecap:round;stroke-linejoin:round;stroke-miterlimit:1.5;stroke-dasharray:none;filter:url(#filter7)"
   d="m 129.38867,44.738281 c -1.98138,1.615342 -3.28268,4.047122 -3.32864,6.814453 -0.21338,12.845016 -1.1137,28.899361 -1.73538,45.755555 -0.66928,18.146781 -0.8002,33.223651 -0.35415,50.566661 0.35774,13.90912 1.2824,32.6425 1.6109,40.93289 0.41345,10.434 0.49168,16.85427 0.49168,16.85427 0.0344,2.32178 0.95326,4.4121 2.40934,5.98437 5.60659,0 16.81641,0 16.81641,0 3.93805,0 7.52242,-1.53981 10.13191,-4.0371 0.12673,-0.62787 0.19697,-1.27572 0.17565,-1.94727 -0.27942,-8.79867 -1.07875,-17.55979 -2.15769,-28.89122 -1.08483,-11.39326 -1.98674,-21.04335 -2.50266,-31.92908 -0.96076,-20.2718 0.1642,-36.48829 0.1642,-36.48829 5.26597,-4.72799 9.53832,-14.770284 10.72475,-25.402348 1.19797,-10.878683 -1.15063,-20.49791 -6.54114,-25.460938 0.11712,-1.979562 0.28458,-5.9375 0.28458,-5.9375 0.0131,-0.367329 -0.004,-0.726726 -0.0364,-1.082031 -5.70568,-3.611208 -12.5788,-5.732422 -19.93076,-5.732422 z m -63.650389,0 c -7.302978,0 -14.133857,2.092913 -19.819347,5.660157 -0.03788,0.378571 -0.05829,0.761905 -0.04458,1.154296 0.05991,1.714536 0.234306,5.142578 0.234306,5.142578 -6.007984,4.582617 -8.769022,14.684691 -7.496381,26.25586 0.616202,5.572182 2.116426,11.109465 4.175214,15.748635 2.070455,4.665463 4.657621,8.327233 7.5195,10.507223 0.437905,8.35679 0.677552,17.77048 0.376312,28.63781 -0.305275,11.01292 -1.089853,21.13919 -2.04386,31.64903 -1.061922,11.69868 -1.674693,17.43738 -2.243624,25.61937 -0.454061,6.53001 -0.548921,10.54887 -0.548921,10.54887 -0.01041,0.33401 9.28e-4,0.66217 0.02809,0.98633 2.647689,3.0603 6.627436,4.99804 11.048837,4.99804 5.35133,0 16.050781,0 16.050781,0 1.456108,-1.5723 2.374477,-3.66256 2.40755,-5.98437 0.207956,-14.59927 0.979077,-27.14511 1.650565,-45.75556 0.655062,-18.15517 0.802936,-33.21526 0.390155,-50.56665 C 77.084286,95.107038 76.219887,77.02113 75.886527,68.407002 75.482739,57.973004 75.394699,51.552734 75.394699,51.552734 75.350522,48.785359 74.0498,46.353667 72.068358,44.738281 Z m 20.142578,0 c -2.026895,1.614507 -3.334748,4.069852 -3.302708,6.873047 0.146709,12.835412 0.761146,28.877751 1.185204,45.721342 0.456489,18.13171 0.545718,33.20031 0.241501,50.52885 -0.244249,13.9127 -0.874504,32.60411 -1.099284,40.90228 -0.282419,10.42603 -0.336426,16.84167 -0.336426,16.84167 -0.02399,2.35043 0.891348,4.46253 2.380073,6.04101 10.520984,0 31.556641,0 31.556641,0 1.48883,-1.57853 2.40556,-3.69048 2.38019,-6.04101 -0.1385,-12.83541 -0.78367,-28.87775 -1.24004,-45.72134 -0.4915,-18.1401 -0.60242,-33.19193 -0.29279,-50.52885 0.25422,-14.233935 0.90236,-32.28288 1.15318,-40.902286 0.30339,-10.426061 0.37013,-16.841666 0.37013,-16.841666 0.0339,-2.803014 -1.27368,-5.258485 -3.30036,-6.873047 z"
   inkscape:path-effect="#path-effect7"
   inkscape:original-d="m 129.38867,44.738281 c -1.98164,1.615552 -3.26953,4.046912 -3.26953,6.814453 V 205.66211 c 0,2.3219 0.90709,4.41198 2.36328,5.98437 h 16.81641 c 3.93805,0 7.51075,-1.53981 10.17773,-4.0371 0.14074,-0.62783 0.22852,-1.27576 0.22852,-1.94727 v -97.30859 a 16.608789,28.527819 0 0 0 9.12695,-25.402348 16.608789,28.527819 0 0 0 -9.12695,-25.460938 v -5.9375 c 0,-0.367336 -0.0291,-0.726719 -0.0723,-1.082031 -5.82545,-3.611208 -12.66952,-5.732422 -20.02148,-5.732422 z m -63.650389,0 c -7.302978,0 -14.105798,2.092913 -19.90625,5.660157 -0.04918,0.378578 -0.08203,0.761898 -0.08203,1.154296 v 5.142578 A 16.608789,28.527819 0 0 0 35.615234,82.951172 16.608789,28.527819 0 0 0 45.75,109.20703 v 96.45508 c 0,0.33401 0.02084,0.66217 0.05664,0.98633 2.732239,3.0603 6.695786,4.99804 11.117187,4.99804 h 16.050781 c 1.456191,-1.57239 2.363282,-3.66247 2.363282,-5.98437 V 51.552734 c 0,-2.767541 -1.287886,-5.198901 -3.269532,-6.814453 z m 20.142578,0 c -2.024832,1.612864 -3.34375,4.071495 -3.34375,6.873047 V 205.60547 c 0,2.34915 0.924588,4.46381 2.41211,6.04101 h 31.556641 c 1.4876,-1.57722 2.41406,-3.69179 2.41406,-6.04101 V 51.611328 c 0,-2.801327 -1.31919,-5.260172 -3.34375,-6.873047 z"
   inkscape:label="cooked" /><g
   id="Face">
            <path
   id="Mouth"
   d="m 65.596,155.72 10.776,18.117 14.52,-18.085 17.987,18.035 21.427,-18.014"
   style="fill:none;stroke:#000000;stroke-width:10px" />
            <g
   id="Eyes">
                <path
   id="Right-eye"
   serif:id="Right eye"
   d="m 143.057,111.742 v 7.946 c 0,8.348 -6.777,15.125 -15.124,15.125 -8.347,0 -15.124,-6.777 -15.124,-15.125 v -7.946 c 0,-8.347 6.777,-15.124 15.124,-15.124 8.347,0 15.124,6.777 15.124,15.124 z" />
                <path
   id="Left-eye"
   serif:id="Left eye"
   d="m 82.953,111.678 v 7.946 c 0,8.347 -6.777,15.124 -15.125,15.124 -8.347,0 -15.124,-6.777 -15.124,-15.124 v -7.946 c 0,-8.347 6.777,-15.124 15.124,-15.124 8.348,0 15.125,6.777 15.125,15.124 z" />
            </g>
        </g>
    </g></svg>
