<?xml version="1.0" encoding="UTF-8" standalone="no"?>
<svg
   viewBox="0 0 2048 2048"
   version="1.1"
   id="svg5"
   sodipodi:docname="neobot_mecha.svg"
   inkscape:version="1.3.2 (091e20e, 2023-11-25, custom)"
   xml:space="preserve"
   xmlns:inkscape="http://www.inkscape.org/namespaces/inkscape"
   xmlns:sodipodi="http://sodipodi.sourceforge.net/DTD/sodipodi-0.dtd"
   xmlns:xlink="http://www.w3.org/1999/xlink"
   xmlns="http://www.w3.org/2000/svg"
   xmlns:svg="http://www.w3.org/2000/svg"><sodipodi:namedview
     id="namedview5"
     pagecolor="#ffffff"
     bordercolor="#666666"
     borderopacity="1.0"
     inkscape:showpageshadow="2"
     inkscape:pageopacity="0.0"
     inkscape:pagecheckerboard="0"
     inkscape:deskcolor="#d1d1d1"
     showgrid="false"
     inkscape:zoom="0.51168567"
     inkscape:cx="1350.4384"
     inkscape:cy="1451.0862"
     inkscape:window-width="1920"
     inkscape:window-height="1001"
     inkscape:window-x="-9"
     inkscape:window-y="-9"
     inkscape:window-maximized="1"
     inkscape:current-layer="svg5" /><defs
     id="defs5"><filter
       id="eye_glow"
       width="2.640625"
       height="2.125"
       x="-0.8203125"
       y="-0.5625"><feGaussianBlur
         in="SourceGraphic"
         result="blur1"
         stdDeviation="50"
         id="feGaussianBlur1" /><feGaussianBlur
         in="SourceGraphic"
         result="blur2"
         stdDeviation="25"
         id="feGaussianBlur2" /><feGaussianBlur
         in="SourceGraphic"
         result="blur3"
         stdDeviation="12.5 "
         id="feGaussianBlur3" /><feComposite
         in="SourceGraphic"
         in2="blur1"
         result="comp1"
         id="feComposite3" /><feComposite
         in="comp1"
         in2="blur2"
         result="comp2"
         id="feComposite4" /><feComposite
         in="comp2"
         in2="blur3"
         id="feComposite5" /></filter><filter
       id="eye_glow-3"
       width="2.640625"
       height="2.125"
       x="-0.8203125"
       y="-0.5625"><feGaussianBlur
         in="SourceGraphic"
         result="blur1"
         stdDeviation="50"
         id="feGaussianBlur1-8" /><feGaussianBlur
         in="SourceGraphic"
         result="blur2"
         stdDeviation="25"
         id="feGaussianBlur2-5" /><feGaussianBlur
         in="SourceGraphic"
         result="blur3"
         stdDeviation="12.5 "
         id="feGaussianBlur3-8" /><feComposite
         in="SourceGraphic"
         in2="blur1"
         result="comp1"
         id="feComposite3-7" /><feComposite
         in="comp1"
         in2="blur2"
         result="comp2"
         id="feComposite4-6" /><feComposite
         in="comp2"
         in2="blur3"
         id="feComposite5-7" /></filter><clipPath
       clipPathUnits="userSpaceOnUse"
       id="clipPath9"><rect
         style="opacity:1;fill:#cbcbcb;fill-opacity:1;stroke:#000000;stroke-width:72;stroke-linecap:round;stroke-linejoin:round;stroke-dasharray:none;stroke-opacity:1;paint-order:markers stroke fill"
         id="rect10"
         width="1087.2317"
         height="914.8634"
         x="-1595.4213"
         y="755.03296"
         transform="scale(-1,1)" /></clipPath></defs><g
     id="g7"
     sodipodi:insensitive="true"
     inkscape:label="body"><path
       d="m 1285.5387,1983 c 138,-6 259,-43 354,-105 56,-38 99,-78 142,-136 a 725,725 0 0 0 138,-452 c 0,-197 -43,-366 -129,-507 -37,-62 -84,-120 -147,-183 a 920,920 0 0 0 -600,-276 850,850 0 0 0 -367.99996,50 c -2,0 -2,-5 -2,-106 0,-125 0,-129 -8,-154 a 159,159 0 0 0 -125,-109 c -12,-2 -15,-2 -73,-2 l -70,1 a 160,160 0 0 0 -133,130 c -3,16 -3,35 -3,291 v 263 l -9,11 a 803,803 0 0 0 -92,162 c -41,97 -65.000002,199 -73.000002,318 -4,60 -4,185 0,247 17.000002,249 98.000002,415 245.000002,498 46,26 101,44 161,52 44,7 22,6 338,7 a 282100,282100 0 0 1 453.99996,0 z"
       id="outline" /><rect
       id="stem"
       width="156.5"
       height="531.5"
       x="-545.53876"
       y="278"
       fill="#a0a0a0"
       paint-order="markers stroke fill"
       rx="26.1"
       ry="25.700001"
       transform="scale(-1,1)" /><path
       id="body"
       fill="#cbcbcb"
       stroke="none"
       d="m 958.53874,448 c 136.99996,-1 271.99996,39 393.99996,99 a 828,828 0 0 1 376,381 802,802 0 0 1 65,358 c -1,122 -20,251 -93,352 a 501,501 0 0 1 -301,206 c -80,18 -163,12 -244,14 -200.99996,1 -400.99996,2 -601.99996,-1 -60,-5 -120,-26 -170,-60 -93,-64 -139,-176 -159,-283 -21,-100 -13,-202 -14,-304 -1,-97 13,-195 47,-287 29,-74 64,-149 185,-265 120,-116 163,-126 197,-143 98,-49 209,-69 319,-67 z"
       display="inline"
       paint-order="markers stroke fill"
       style="font-variation-settings:'wght' 400" /><rect
       id="light"
       width="156.5"
       height="140.5"
       x="-546.53876"
       y="130"
       fill="#58d3d7"
       paint-order="markers stroke fill"
       rx="23.799999"
       ry="27"
       transform="scale(-1,1)" /></g><g
     id="g8"
     transform="matrix(-1,0,0,1,2004.5387,0)"
     clip-path="url(#clipPath9)"><path
       id="visor"
       fill="#353535"
       d="m 639,1210 -45,-5 c -35,-5 -63,-13 -89,-26 -53,-27 -87,-71 -98,-130 -4,-19 -5,-28 -5,-47 0,-74 26,-142 77,-207 66,-83 156,-133 270,-150 a 1655,1655 0 0 1 378,0 c 114,17 204,67 270,150 51,65 77,133 77,207 0,19 -1,28 -5,47 -17,86 -80,139 -183,156 -35,6 -13,5 -341,6 z"
       display="inline" /><path
       id="mouth"
       fill="none"
       stroke="#353535"
       stroke-linecap="round"
       stroke-linejoin="round"
       stroke-width="80.4"
       d="m 632,1318 97,156 127,-161 157,164 192,-161" /><g
       id="eyes"
       clip-path="url(#visor)"><path
         id="left_eye"
         fill="#58d3d7"
         d="m 1209,834 a 128,128 0 0 0 -128,128 v 64 a 128,128 0 0 0 128,128 128,128 0 0 0 128,-128 V 962 A 128,128 0 0 0 1209,834 Z"
         filter="url(#eye_glow)"
         style="filter:url(#eye_glow-3)" /><use
         xlink:href="#left_eye"
         id="right_eye"
         width="100%"
         height="100%"
         x="0"
         y="0"
         display="inline"
         transform="translate(-575)" /></g></g><g
     id="g9"
     inkscape:label="door"><rect
       style="opacity:1;fill:#000000;fill-opacity:0.66666669;stroke:#000000;stroke-width:72;stroke-linecap:round;stroke-linejoin:round;stroke-opacity:1;paint-order:markers stroke fill;stroke-dasharray:none"
       id="rect8"
       width="1087.2317"
       height="914.8634"
       x="409.11743"
       y="755.03296" /><path
       id="rect7"
       style="opacity:1;fill:#cbcbcb;fill-opacity:1;stroke:#000000;stroke-width:72;stroke-linecap:round;stroke-linejoin:round;stroke-dasharray:none;stroke-opacity:1;paint-order:markers stroke fill"
       d="M 1616.3496,2010.5601 H 169.11719 l 240,-320.6636 H 1496.3496 Z"
       sodipodi:nodetypes="ccccc" /><path
       id="path8"
       style="opacity:1;fill:#cbcbcb;fill-opacity:1;stroke:#000000;stroke-width:72;stroke-linecap:round;stroke-linejoin:round;stroke-dasharray:none;stroke-opacity:1;paint-order:markers stroke fill"
       d="M 329.11719,395.0332 V 852.4648 H 1416.3496 V 395.0332 Z" /></g></svg>
