<?xml version="1.0" encoding="UTF-8" standalone="no"?>
<svg
   width="256"
   height="256"
   viewBox="0 0 2048 2048"
   version="1.1"
   id="svg5"
   sodipodi:docname="neobot_toaster_empty.svg"
   xml:space="preserve"
   inkscape:version="1.3.2 (091e20e, 2023-11-25, custom)"
   inkscape:export-filename="..\png\neobot_toaster_empty.png"
   inkscape:export-xdpi="768"
   inkscape:export-ydpi="768"
   xmlns:inkscape="http://www.inkscape.org/namespaces/inkscape"
   xmlns:sodipodi="http://sodipodi.sourceforge.net/DTD/sodipodi-0.dtd"
   xmlns:xlink="http://www.w3.org/1999/xlink"
   xmlns="http://www.w3.org/2000/svg"
   xmlns:svg="http://www.w3.org/2000/svg"><sodipodi:namedview
     id="namedview5"
     pagecolor="#ffffff"
     bordercolor="#666666"
     borderopacity="1.0"
     inkscape:showpageshadow="2"
     inkscape:pageopacity="0.0"
     inkscape:pagecheckerboard="0"
     inkscape:deskcolor="#d1d1d1"
     inkscape:zoom="2.0467427"
     inkscape:cx="92.586139"
     inkscape:cy="127.76399"
     inkscape:window-width="1920"
     inkscape:window-height="1001"
     inkscape:window-x="-9"
     inkscape:window-y="-9"
     inkscape:window-maximized="1"
     inkscape:current-layer="svg5" /><defs
     id="defs5"><filter
       id="eye_glow"
       width="2.640625"
       height="2.125"
       x="-0.8203125"
       y="-0.5625"><feGaussianBlur
         in="SourceGraphic"
         result="blur1"
         stdDeviation="50"
         id="feGaussianBlur1" /><feGaussianBlur
         in="SourceGraphic"
         result="blur2"
         stdDeviation="25"
         id="feGaussianBlur2" /><feGaussianBlur
         in="SourceGraphic"
         result="blur3"
         stdDeviation="12.5 "
         id="feGaussianBlur3" /><feComposite
         in="SourceGraphic"
         in2="blur1"
         result="comp1"
         id="feComposite3" /><feComposite
         in="comp1"
         in2="blur2"
         result="comp2"
         id="feComposite4" /><feComposite
         in="comp2"
         in2="blur3"
         id="feComposite5" /></filter><inkscape:path-effect
       effect="lattice2"
       gridpoint0="35.615234,44.738281"
       gridpoint1="164.83203,44.738281"
       gridpoint2="35.615234,211.64648"
       gridpoint3="164.83203,211.64648"
       gridpoint4="67.919433,44.738281"
       gridpoint5="132.52783,44.738281"
       gridpoint6="67.919433,211.64648"
       gridpoint7="132.52783,211.64648"
       gridpoint8x9="100.22363,44.738281"
       gridpoint10x11="100.22363,211.64648"
       gridpoint12="35.615234,86.465331"
       gridpoint13="164.83203,86.465331"
       gridpoint14="35.615234,169.91943"
       gridpoint15="164.83203,169.91943"
       gridpoint16="67.919433,86.465331"
       gridpoint17="132.52783,86.465331"
       gridpoint18="67.919433,169.91943"
       gridpoint19="132.52783,169.91943"
       gridpoint20x21="100.22363,86.465331"
       gridpoint22x23="100.22363,169.91943"
       gridpoint24x26="41.626123,128.19238"
       gridpoint25x27="158.82114,128.19238"
       gridpoint28x30="67.919433,128.19238"
       gridpoint29x31="132.52783,128.19238"
       gridpoint32x33x34x35="100.22363,128.19238"
       id="path-effect7"
       is_visible="true"
       lpeversion="1"
       horizontal_mirror="false"
       vertical_mirror="true"
       perimetral="true"
       live_update="true" /><clipPath
       clipPathUnits="userSpaceOnUse"
       id="clipPath10"><path
         id="path11"
         style="opacity:1;stroke-width:32;stroke-linecap:round;stroke-linejoin:round"
         d="m 645.65625,1127.0469 c -24.09097,0 -116.06331,136.4554 -117.625,149.6093 0,20.8419 16.78312,37.625 37.625,37.625 h 742.64065 c 43.8743,-12.4638 91.0332,-111.5458 117.6251,-149.625 0,-20.8418 -16.7831,-37.6093 -37.6251,-37.6093 z"
         sodipodi:nodetypes="sssscss"
         inkscape:label="opening" /></clipPath><clipPath
       clipPathUnits="userSpaceOnUse"
       id="clipPath12"><path
         id="path13"
         style="opacity:1;stroke-width:7.99263;stroke-linecap:round;stroke-linejoin:round"
         d="m 19.246225,17.241297 c -6.017193,0 -28.9890971,34.082432 -29.379159,37.367883 0,5.20566 4.1919142,9.397574 9.39758407,9.397574 H 184.75377 c 10.95845,-3.113069 22.73733,-27.860769 29.37917,-37.371779 0,-5.20566 -4.19192,-9.393678 -9.3976,-9.393678 z"
         sodipodi:nodetypes="sssscss"
         inkscape:label="opening" /></clipPath></defs><path
     id="rect7"
     style="stroke-width:0.698257"
     d="m 1579.2129,1320.2481 c -59.5826,0.018 -115.0805,3.9932 -136.7695,19.286 -10.1912,8.2133 -17.9719,19.2356 -22.8724,31.3349 -4.7512,11.7162 -6.9052,24.3871 -7.0693,36.9982 -0.023,5.394 0.01,10.7828 0,16.177 0.013,20.9361 -0.019,41.8759 0.039,62.8118 0.2787,14.0211 3.2295,28.0757 9.3399,40.7393 5.2142,10.7922 12.8986,20.4228 22.4853,27.6455 50.2298,19.8012 113.6643,20.1913 176.3219,17.6219 62.6617,2.57 126.0888,2.1806 176.322,-17.6219 9.5866,-7.2227 17.2711,-16.8533 22.4853,-27.6455 6.1104,-12.6636 9.0612,-26.7182 9.3399,-40.7393 0.058,-20.9359 0.026,-41.8757 0.039,-62.8118 -0.01,-5.3942 0.023,-10.783 0,-16.177 -0.1642,-12.6111 -2.3182,-25.282 -7.0694,-36.9982 -4.9004,-12.0993 -12.6811,-23.1216 -22.8724,-31.3349 -26.6886,-18.818 -104.5556,-20.4745 -178.2441,-18.7313 -13.8043,-0.3267 -27.7398,-0.559 -41.4746,-0.5547 z"
     inkscape:label="handle_outline" /><path
     id="path8"
     style="font-variation-settings:'wght' 400;display:inline;opacity:1;fill:#000000;stroke-width:0.709743"
     d="m 1037.5162,884.13756 c -4.1425,0.027 -8.2848,0.0506 -12.4272,0.0908 -0.3317,9.9e-4 -1.2134,0.0148 -1.756,0.0209 -0.911,0.0115 -1.822,0.023 -2.7331,0.0343 -0.2146,0.008 -1.2114,0.0225 -1.7282,0.0331 -18.8342,0.28895 -37.64596,1.61061 -56.36158,3.71699 -45.07635,5.1008 -89.53156,15.15458 -132.69553,29.04588 -0.10988,0.0374 -0.98283,0.32198 -1.46839,0.48042 -40.10475,13.0271 -79.14844,29.27399 -116.79927,48.24895 -25.72052,13.12006 -50.57608,27.93105 -74.38019,44.2714 -0.18632,0.1358 -0.9969,0.6894 -1.42414,0.9864 -46.27145,31.9425 -88.50063,69.7383 -125.30961,112.2434 -37.92199,43.7581 -70.15169,92.45 -95.54358,144.492 -4.44742,9.1256 -8.12906,18.5961 -11.8773,28.0228 -17.70214,45.3894 -30.36244,93.2783 -37.38612,141.164 -0.18078,1.244 -0.4284,2.9722 -0.56598,3.9029 -0.35766,2.5375 -0.76945,5.5789 -1.05494,7.8058 -4.74433,36.7442 -6.31516,73.8917 -4.7665,110.907 0.14854,4.6819 0.20906,9.3662 0.30779,14.0493 0.0108,0.2393 0.0305,1.2118 0.0446,1.7339 0.0232,0.978 0.0608,2.4244 0.0749,3.1011 0.35757,12.8354 0.99149,25.6635 1.96316,38.4674 0.003,0.073 0.0917,1.1552 0.12645,1.6022 3.29672,42.0311 10.24455,83.9129 22.77018,124.2229 9.94342,31.9579 23.43814,62.8804 40.95019,91.4329 7.19832,11.72 15.11165,22.9832 23.22697,34.0817 4.98485,6.7694 10.14957,13.4071 15.52316,19.8727 0.1198,0.1484 0.77715,0.9284 1.10513,1.3215 34.79994,41.5824 77.39258,76.6369 124.97169,102.6567 37.51486,20.5506 78.05077,35.6262 119.93792,44.3353 4.3785,0.8849 8.77068,1.7015 13.17526,2.4459 4e-4,0 1.13671,0.1872 1.56723,0.2588 12.80232,2.1082 25.70034,3.6063 38.62978,4.6707 0.21301,0.02 1.20774,0.095 1.72285,0.138 17.98683,1.4298 36.03093,1.9865 54.06972,2.1835 0.4001,4e-4 1.21354,0.012 1.77188,0.016 23.05501,0.2172 46.11321,-0.02 69.16642,0.4012 23.80261,0.2453 47.60683,0.2551 71.4102,0.3863 102.67165,0.4509 205.34835,0.6829 308.01715,-0.3971 1.4298,-0.012 3.0995,-0.034 4.6215,-0.052 16.2428,-0.2047 32.4877,-0.3221 48.728,-0.6786 10.5766,-0.529 21.0831,-1.9898 31.5251,-3.7047 7.0937,-1.2022 14.147,-2.6404 21.1494,-4.2932 0.01,-0.01 1.1209,-0.2704 1.5462,-0.3744 0.6473,-0.1544 0.8938,-0.2145 1.6396,-0.3997 3.3569,-0.8295 6.7015,-1.7091 10.0309,-2.643 0.1834,-0.049 1.1649,-0.3301 1.6575,-0.4691 10.414,-2.9713 20.6831,-6.4484 30.7635,-10.4063 0.039,-0.012 1.0744,-0.4266 1.4863,-0.5893 23.2941,-9.2932 45.5844,-21.1537 66.1703,-35.4886 29.5288,-20.7205 54.9292,-47.0915 75.4161,-76.732 26.3003,-37.962 44.7954,-80.9132 57.3192,-125.2489 1.7624,-6.2514 3.4046,-12.5363 4.9402,-18.8472 0.013,-0.076 0.2696,-1.1274 0.3726,-1.5644 2.8916,-11.9327 5.3035,-23.974 7.6029,-36.0328 0.021,-0.097 0.2114,-1.1416 0.2946,-1.5869 2.2522,-12.1687 4.0679,-24.418 5.4599,-36.7149 0.029,-0.2361 0.1336,-1.2048 0.192,-1.7234 0.076,-0.6804 0.1278,-1.1476 0.181,-1.6711 0.4532,-4.2036 0.8611,-8.4118 1.2299,-12.6235 0.02,-0.2787 0.1023,-1.2087 0.1463,-1.7378 0.1399,-1.596 0.2596,-3.1935 0.3867,-4.7906 0.026,-0.3134 0.091,-1.2099 0.1321,-1.7471 0.124,-1.601 0.2292,-3.2032 0.3418,-4.805 0.017,-0.3134 0.079,-1.2108 0.1127,-1.7483 0.036,-0.55 0.089,-1.3646 0.1086,-1.6535 0.8778,-14.2427 1.3606,-28.5075 1.5772,-42.7748 0.01,-0.2146 0.015,-1.2115 0.022,-1.7283 0.3467,-26.9005 -0.1771,-53.8014 -0.3462,-80.7012 -0.092,-11.8101 -0.059,-23.6206 0,-35.4306 -0.025,-16.5112 -0.6181,-33.0214 -1.7786,-49.492 0,-0.066 -0.085,-1.155 -0.1173,-1.601 -0.1854,-2.6019 -0.3998,-5.2017 -0.6111,-7.8016 -0.01,-0.066 -0.102,-1.1539 -0.1425,-1.5992 -0.091,-1.0318 -0.1814,-2.0635 -0.2721,-3.0952 0,-0.065 -0.1092,-1.1531 -0.1506,-1.5981 -1.8524,-19.7887 -4.5703,-39.4974 -8.1879,-59.0411 0,-0.035 -0.2146,-1.1353 -0.2959,-1.5698 -5.7881,-30.7102 -13.7808,-61.0248 -24.2478,-90.4771 -5.4981,-15.3328 -11.7653,-30.3834 -18.5057,-45.2093 -8.4453,-18.4745 -17.9648,-36.468 -28.7426,-53.691 -23.3605,-37.5136 -51.9433,-71.5203 -82.7518,-103.106 -11.4451,-11.7544 -23.211,-23.1929 -35.1573,-34.4362 -0.2509,-0.2287 -0.8859,-0.8294 -1.284,-1.2008 -23.3218,-21.9302 -47.4836,-43.0612 -73.4545,-61.82149 -19.3395,-13.96593 -39.9087,-26.30338 -61.682,-36.09151 -7.4195,-3.40857 -14.7851,-6.93177 -22.1404,-10.47623 -19.7262,-9.30221 -40.0795,-17.25973 -60.8408,-23.93347 -0.1775,-0.0518 -1.1537,-0.36668 -1.6407,-0.52042 -52.2963,-16.63222 -107.0488,-25.0377 -161.8569,-26.50016 -7.7334,-0.21328 -15.4707,-0.27301 -23.2066,-0.22622 z"
     inkscape:label="outline" /><path
     id="body"
     fill="#cbcbcb"
     stroke="none"
     d="m 1046,448 c -137,-1 -272,39 -394,99 a 828,828 0 0 0 -376,381 802,802 0 0 0 -65,358 c 1,122 20,251 93,352 a 501,501 0 0 0 301,206 c 80,18 163,12 244,14 201,1 401,2 602,-1 60,-5 120,-26 170,-60 93,-64 139,-176 159,-283 21,-100 13,-202 14,-304 1,-97 -13,-195 -47,-287 -29,-74 -64,-149 -185,-265 -120,-116 -163,-126 -197,-143 -98,-49 -209,-69 -319,-67 z"
     display="inline"
     paint-order="markers stroke fill"
     style="font-variation-settings:'wght' 400"
     transform="matrix(0.7021952,0,0,0.7021952,300.92957,653.15792)" /><g
     id="g7"
     inkscape:label="handle"
     transform="matrix(0.7021952,0,0,0.7021952,300.92957,301.15792)"><rect
       id="light"
       width="195.60999"
       height="163.06175"
       x="1532.0974"
       y="-2112.2439"
       fill="#58d3d7"
       paint-order="markers stroke fill"
       rx="29.747715"
       ry="31.335711"
       transform="rotate(90)"
       style="stroke-width:1.20441" /><rect
       id="stem"
       width="195.60999"
       height="283.38254"
       x="1533.3473"
       y="-1940.4779"
       fill="#a0a0a0"
       paint-order="markers stroke fill"
       rx="32.622498"
       ry="13.702599"
       transform="rotate(90)"
       style="stroke-width:0.816345" /><path
       style="fill:none;stroke:#22898c;stroke-width:45.5714;stroke-linecap:round;stroke-linejoin:miter;stroke-dasharray:none;stroke-opacity:1"
       d="m 1982.7786,1602.5432 c 0,0 72.2587,-1.0189 98.3509,-31.9798"
       id="path6"
       sodipodi:nodetypes="cc" /><path
       style="fill:none;stroke:#22898c;stroke-width:45.5714;stroke-linecap:round;stroke-linejoin:miter;stroke-dasharray:none;stroke-opacity:1"
       d="m 1982.7786,1661.7061 c 0,0 72.2587,1.0189 98.3509,31.9798"
       id="path7"
       sodipodi:nodetypes="cc" /></g><g
     id="g5"
     inkscape:label="neobot"
     transform="matrix(0.70219522,0,0,0.70219522,300.92957,653.15792)"><path
       id="visor"
       fill="#353535"
       d="m 639,1506.214 -45,-5 c -35,-5 -63,-13 -89,-26 -53,-27 -87,-71 -98,-130 -4,-19 -5,-28 -5,-47 0,-74 26,-142 77,-207 66,-83.0001 156,-87.4287 270,-104.4287 125.58649,-14.43634 252.4135,-14.43634 378,0 114,17 204,21.4286 270,104.4287 51,65 77,133 77,207 0,19 -1,28 -5,47 -17,86 -80,139 -183,156 -35,6 -13,5 -341,6 z"
       display="inline"
       sodipodi:nodetypes="ccccsccccscccc" /><path
       id="mouth"
       fill="none"
       stroke="#353535"
       stroke-linecap="round"
       stroke-linejoin="round"
       stroke-width="80.4"
       d="m 632,1614.214 97,156 127,-161 157,164 192,-161" /><g
       id="eyes"
       clip-path="url(#visor)"
       transform="translate(0,296.21393)"><path
         id="left_eye"
         fill="#58d3d7"
         d="m 1209,834 a 128,128 0 0 0 -128,128 v 64 a 128,128 0 0 0 128,128 128,128 0 0 0 128,-128 V 962 A 128,128 0 0 0 1209,834 Z"
         filter="url(#eye_glow)" /><use
         xlink:href="#left_eye"
         id="right_eye"
         width="100%"
         height="100%"
         x="0"
         y="0"
         display="inline"
         transform="translate(-575)" /></g></g><path
     id="path10"
     style="opacity:1;stroke-width:32;stroke-linecap:round;stroke-linejoin:round"
     d="m 645.65625,1127.0469 c -24.09097,0 -116.06331,136.4554 -117.625,149.6093 0,20.8419 16.78312,37.625 37.625,37.625 h 742.64065 c 43.8742,-12.4638 91.0332,-111.5458 117.625,-149.625 0,-20.8418 -16.7831,-37.6093 -37.625,-37.6093 z"
     sodipodi:nodetypes="sssscss"
     inkscape:label="opening" /></svg>
